<svg width="16" height="26" viewBox="0 0 16 26" fill="none" xmlns="http://www.w3.org/2000/svg">
<path d="M3.83332 0.866634L15.0667 12.0666C15.2 12.2 15.2942 12.3444 15.3493 12.5C15.4053 12.6555 15.4333 12.8222 15.4333 13C15.4333 13.1777 15.4053 13.3444 15.3493 13.5C15.2942 13.6555 15.2 13.8 15.0667 13.9333L3.83332 25.1666C3.52221 25.4777 3.13332 25.6333 2.66665 25.6333C2.19999 25.6333 1.79999 25.4666 1.46665 25.1333C1.13332 24.8 0.966653 24.4111 0.966653 23.9666C0.966653 23.5222 1.13332 23.1333 1.46665 22.8L11.2667 13L1.46665 3.19997C1.15554 2.88886 0.999986 2.50575 0.999986 2.05063C0.999986 1.59464 1.16665 1.19997 1.49999 0.866634C1.83332 0.5333 2.22221 0.366634 2.66665 0.366634C3.1111 0.366634 3.49999 0.5333 3.83332 0.866634Z" fill="#06306F"/>
</svg>
