<svg width="40" height="40" viewBox="0 0 40 40" fill="none" xmlns="http://www.w3.org/2000/svg">
<path d="M19.9999 3.33331C13.5499 3.33331 8.33325 8.54998 8.33325 15C8.33325 23.75 19.9999 36.6666 19.9999 36.6666C19.9999 36.6666 31.6666 23.75 31.6666 15C31.6666 8.54998 26.4499 3.33331 19.9999 3.33331ZM19.9999 19.1666C18.8949 19.1666 17.835 18.7277 17.0536 17.9463C16.2722 17.1649 15.8333 16.105 15.8333 15C15.8333 13.8949 16.2722 12.8351 17.0536 12.0537C17.835 11.2723 18.8949 10.8333 19.9999 10.8333C21.105 10.8333 22.1648 11.2723 22.9462 12.0537C23.7276 12.8351 24.1666 13.8949 24.1666 15C24.1666 16.105 23.7276 17.1649 22.9462 17.9463C22.1648 18.7277 21.105 19.1666 19.9999 19.1666Z" fill="white"/>
</svg>
