<svg width="48" height="48" viewBox="0 0 48 48" fill="none" xmlns="http://www.w3.org/2000/svg">
<path d="M18.25 42.2L1.40001 25.4C1.20001 25.2 1.05867 24.9833 0.976006 24.75C0.892006 24.5167 0.850006 24.2667 0.850006 24C0.850006 23.7333 0.892006 23.4833 0.976006 23.25C1.05867 23.0167 1.20001 22.8 1.40001 22.6L18.25 5.75C18.7167 5.28333 19.3 5.05 20 5.05C20.7 5.05 21.3 5.3 21.8 5.8C22.3 6.3 22.55 6.88333 22.55 7.55C22.55 8.21667 22.3 8.8 21.8 9.3L7.10001 24L21.8 38.7C22.2667 39.1667 22.5 39.7413 22.5 40.424C22.5 41.108 22.25 41.7 21.75 42.2C21.25 42.7 20.6667 42.95 20 42.95C19.3333 42.95 18.75 42.7 18.25 42.2Z" fill="white"/>
</svg>