<svg width="20" height="20" viewBox="0 0 20 20" fill="none" xmlns="http://www.w3.org/2000/svg">
<g clip-path="url(#clip0_1_59)">
<path d="M10.0001 5C9.34081 5 8.69635 5.1955 8.14818 5.56177C7.60002 5.92804 7.17278 6.44863 6.92048 7.05772C6.66819 7.66681 6.60218 8.33703 6.7308 8.98363C6.85942 9.63024 7.17689 10.2242 7.64306 10.6904C8.10924 11.1565 8.70318 11.474 9.34978 11.6026C9.99639 11.7312 10.6666 11.6652 11.2757 11.4129C11.8848 11.1606 12.4054 10.7334 12.7716 10.1852C13.1379 9.63707 13.3334 8.9926 13.3334 8.33333C13.3334 7.44928 12.9822 6.60143 12.3571 5.97631C11.732 5.35119 10.8841 5 10.0001 5ZM10.0001 10C9.67045 10 9.34822 9.90225 9.07413 9.71912C8.80005 9.53598 8.58643 9.27568 8.46028 8.97114C8.33414 8.6666 8.30113 8.33148 8.36544 8.00818C8.42975 7.68488 8.58848 7.38791 8.82157 7.15482C9.05466 6.92173 9.35163 6.763 9.67493 6.69869C9.99823 6.63438 10.3333 6.66739 10.6379 6.79353C10.9424 6.91968 11.2027 7.1333 11.3859 7.40738C11.569 7.68146 11.6668 8.0037 11.6668 8.33333C11.6668 8.77536 11.4912 9.19928 11.1786 9.51184C10.866 9.8244 10.4421 10 10.0001 10Z" fill="#EEEEEE"/>
<path d="M9.99994 20.0003C9.29823 20.0039 8.60587 19.8393 7.98083 19.5203C7.35579 19.2013 6.81627 18.7373 6.40744 18.1669C3.23161 13.7861 1.62077 10.4928 1.62077 8.37776C1.62077 6.15547 2.50358 4.0242 4.07497 2.4528C5.64637 0.881399 7.77765 -0.00140381 9.99994 -0.00140381C12.2222 -0.00140381 14.3535 0.881399 15.9249 2.4528C17.4963 4.0242 18.3791 6.15547 18.3791 8.37776C18.3791 10.4928 16.7683 13.7861 13.5924 18.1669C13.1836 18.7373 12.6441 19.2013 12.0191 19.5203C11.394 19.8393 10.7017 20.0039 9.99994 20.0003ZM9.99994 1.81776C8.26029 1.81975 6.59245 2.5117 5.36233 3.74182C4.13221 4.97194 3.44026 6.63978 3.43827 8.37943C3.43827 10.0544 5.01577 13.1519 7.87911 17.1011C8.12219 17.4359 8.44108 17.7084 8.8097 17.8963C9.17832 18.0842 9.58619 18.1822 9.99994 18.1822C10.4137 18.1822 10.8216 18.0842 11.1902 17.8963C11.5588 17.7084 11.8777 17.4359 12.1208 17.1011C14.9841 13.1519 16.5616 10.0544 16.5616 8.37943C16.5596 6.63978 15.8677 4.97194 14.6375 3.74182C13.4074 2.5117 11.7396 1.81975 9.99994 1.81776Z" fill="#EEEEEE"/>
</g>
<defs>
<clipPath id="clip0_1_59">
<rect width="20" height="20" fill="white"/>
</clipPath>
</defs>
</svg>
