<svg width="21" height="20" viewBox="0 0 21 20" fill="none" xmlns="http://www.w3.org/2000/svg">
<path d="M11.3332 0.833444C11.3332 0.61243 11.421 0.400468 11.5773 0.244188C11.7336 0.0879075 11.9455 0.000110103 12.1666 0.000110103C14.3759 0.00253643 16.4942 0.881289 18.0564 2.44357C19.6187 4.00584 20.4975 6.12405 20.4999 8.33344C20.4999 8.55446 20.4121 8.76642 20.2558 8.9227C20.0995 9.07898 19.8876 9.16678 19.6665 9.16678C19.4455 9.16678 19.2336 9.07898 19.0773 8.9227C18.921 8.76642 18.8332 8.55446 18.8332 8.33344C18.8312 6.56594 18.1282 4.8714 16.8784 3.62159C15.6286 2.37178 13.9341 1.66876 12.1666 1.66678C11.9455 1.66678 11.7336 1.57898 11.5773 1.4227C11.421 1.26642 11.3332 1.05446 11.3332 0.833444ZM12.1666 5.00011C13.0506 5.00011 13.8985 5.3513 14.5236 5.97642C15.1487 6.60154 15.4999 7.44939 15.4999 8.33344C15.4999 8.55446 15.5877 8.76642 15.744 8.9227C15.9002 9.07898 16.1122 9.16678 16.3332 9.16678C16.5542 9.16678 16.7662 9.07898 16.9225 8.9227C17.0788 8.76642 17.1666 8.55446 17.1666 8.33344C17.1652 7.00777 16.638 5.73677 15.7006 4.79937C14.7632 3.86198 13.4922 3.33477 12.1666 3.33344C11.9455 3.33344 11.7336 3.42124 11.5773 3.57752C11.421 3.7338 11.3332 3.94576 11.3332 4.16678C11.3332 4.38779 11.421 4.59975 11.5773 4.75603C11.7336 4.91231 11.9455 5.00011 12.1666 5.00011ZM19.744 13.9493C20.227 14.4335 20.4982 15.0895 20.4982 15.7734C20.4982 16.4573 20.227 17.1133 19.744 17.5976L18.9857 18.4718C12.1607 25.0059 -4.44759 8.40178 1.98574 1.55511L2.94407 0.721777C3.42888 0.252341 4.07901 -0.007349 4.75382 -0.00111086C5.42863 0.00512727 6.07385 0.276792 6.5499 0.75511C6.57573 0.780944 8.1199 2.78678 8.1199 2.78678C8.57809 3.26813 8.83315 3.90755 8.83206 4.57211C8.83098 5.23667 8.57383 5.87526 8.11406 6.35511L7.14907 7.56844C7.6831 8.86604 8.46828 10.0453 9.45949 11.0385C10.4507 12.0317 11.6284 12.8193 12.9249 13.3559L14.1457 12.3851C14.6256 11.9257 15.2641 11.6689 15.9285 11.6679C16.5928 11.667 17.232 11.9221 17.7132 12.3801C17.7132 12.3801 19.7182 13.9234 19.744 13.9493ZM18.5974 15.1609C18.5974 15.1609 16.6032 13.6268 16.5774 13.6009C16.4057 13.4307 16.1737 13.3352 15.932 13.3352C15.6902 13.3352 15.4582 13.4307 15.2866 13.6009C15.2641 13.6243 13.5832 14.9634 13.5832 14.9634C13.47 15.0536 13.3352 15.1127 13.1921 15.1349C13.049 15.1571 12.9027 15.1417 12.7674 15.0901C11.0878 14.4648 9.56218 13.4857 8.29393 12.2193C7.02568 10.953 6.0444 9.4288 5.41657 7.75011C5.3609 7.61299 5.34275 7.46352 5.36399 7.31706C5.38522 7.1706 5.44508 7.03244 5.5374 6.91678C5.5374 6.91678 6.87657 5.23511 6.89907 5.21344C7.06929 5.04177 7.1648 4.80979 7.1648 4.56803C7.1648 4.32626 7.06929 4.09429 6.89907 3.92261C6.87323 3.89761 5.33907 1.90178 5.33907 1.90178C5.16482 1.74553 4.9374 1.66186 4.70344 1.6679C4.46948 1.67394 4.24669 1.76925 4.08074 1.93428L3.1224 2.76761C-1.57926 8.42094 12.8132 22.0151 17.7674 17.3334L18.5266 16.4584C18.7045 16.2937 18.8113 16.0662 18.8245 15.824C18.8377 15.5819 18.7563 15.3441 18.5974 15.1609Z" fill="#EEEEEE"/>
</svg>
