<svg width="18" height="12" viewBox="0 0 18 12" fill="none" xmlns="http://www.w3.org/2000/svg">
<path d="M17.75 0.759388C17.75 0.784932 17.7449 0.810222 17.7351 0.833783C17.7252 0.857344 17.7107 0.878706 17.6925 0.896623C17.6743 0.914539 17.6527 0.928653 17.629 0.938141C17.6053 0.94763 17.5799 0.952302 17.5544 0.951887H16.5044L11.7444 11.0863C11.7291 11.1196 11.7047 11.1479 11.6739 11.1679C11.6431 11.1878 11.6073 11.1985 11.5706 11.1988H11.5681C11.5319 11.1988 11.4963 11.1887 11.4654 11.1697C11.4346 11.1508 11.4095 11.1236 11.3931 11.0913L9.13437 6.61126L6.69562 11.0988C6.67819 11.13 6.65252 11.1559 6.6214 11.1736C6.59029 11.1912 6.55492 11.2 6.51915 11.199C6.48339 11.198 6.44858 11.1871 6.41854 11.1677C6.38849 11.1483 6.36436 11.121 6.34875 11.0888L1.53437 0.951887H0.445625C0.420129 0.952135 0.394835 0.947347 0.371193 0.937799C0.347551 0.928251 0.326025 0.914131 0.307852 0.896247C0.289678 0.878363 0.275212 0.857069 0.265285 0.833583C0.255358 0.810098 0.250163 0.784884 0.25 0.759388V0.243763C0.250081 0.218213 0.255215 0.192932 0.265106 0.169374C0.274996 0.145817 0.289449 0.124448 0.307631 0.106499C0.325813 0.0885489 0.347366 0.0743724 0.371049 0.0647855C0.394731 0.0551986 0.420077 0.0503904 0.445625 0.0506377H4.32687C4.35242 0.0503904 4.37777 0.0551986 4.40145 0.0647855C4.42513 0.0743724 4.44669 0.0885489 4.46487 0.106499C4.48305 0.124448 4.4975 0.145817 4.50739 0.169374C4.51728 0.192932 4.52242 0.218213 4.5225 0.243763V0.758762C4.52234 0.784259 4.51714 0.809473 4.50722 0.832958C4.49729 0.856444 4.48282 0.877739 4.46465 0.895622C4.44647 0.913506 4.42495 0.927626 4.40131 0.937174C4.37767 0.946722 4.35237 0.95151 4.32687 0.951263H3.4925L6.815 8.61501L8.54375 5.38501L6.35125 0.953763H5.82375C5.77198 0.953763 5.72231 0.933238 5.68564 0.896686C5.64897 0.860135 5.62829 0.810537 5.62812 0.758762V0.246263C5.62812 0.138763 5.71625 0.0506377 5.82375 0.0506377H8.6975C8.723 0.050801 8.74821 0.0559954 8.7717 0.0659228C8.79518 0.0758502 8.81648 0.0903149 8.83436 0.108489C8.85224 0.126663 8.86636 0.148188 8.87591 0.17183C8.88546 0.195472 8.89025 0.220766 8.89 0.246263V0.758762C8.89008 0.784065 8.88516 0.809134 8.87551 0.832527C8.86587 0.855919 8.85169 0.877173 8.8338 0.895064C8.81591 0.912956 8.79466 0.927133 8.77126 0.936778C8.74787 0.946422 8.7228 0.951345 8.6975 0.951263H8.18937L9.45187 3.71064L10.9531 0.951263H10.0325C10.007 0.951594 9.98171 0.946859 9.95807 0.937333C9.93442 0.927807 9.9129 0.91368 9.89476 0.895772C9.87662 0.877864 9.86222 0.856531 9.85239 0.833011C9.84256 0.809492 9.8375 0.784254 9.8375 0.758762V0.246263C9.83725 0.220556 9.84212 0.195057 9.85182 0.171251C9.86153 0.147445 9.87587 0.125808 9.89402 0.107601C9.91217 0.0893936 9.93376 0.0749807 9.95753 0.0652009C9.98131 0.0554212 10.0068 0.0504707 10.0325 0.0506377H12.8231C12.8487 0.050719 12.874 0.0558526 12.8975 0.0657433C12.9211 0.0756341 12.9424 0.0900862 12.9604 0.108268C12.9783 0.12645 12.9925 0.148004 13.0021 0.171686C13.0117 0.195369 13.0165 0.220714 13.0163 0.246263V0.758762C13.0163 0.784118 13.0114 0.809239 13.0017 0.832672C12.992 0.856106 12.9778 0.877387 12.9598 0.895287C12.9419 0.913187 12.9205 0.92735 12.8971 0.936958C12.8736 0.946566 12.8485 0.951428 12.8231 0.951263H12.2106L10.0206 4.93376L11.805 8.60564L15.25 0.951887H14.1587C14.1333 0.952135 14.108 0.947347 14.0843 0.937799C14.0607 0.928251 14.0392 0.914131 14.021 0.896247C14.0028 0.878363 13.9883 0.857069 13.9784 0.833583C13.9685 0.810098 13.9633 0.784884 13.9631 0.759388V0.246888C13.9631 0.139388 14.0512 0.0512624 14.1587 0.0512624H17.5544C17.5801 0.0510119 17.6057 0.0559009 17.6295 0.0656432C17.6534 0.0753856 17.675 0.0897857 17.6933 0.108001C17.7115 0.126217 17.7259 0.147882 17.7356 0.17173C17.7454 0.195577 17.7502 0.221128 17.75 0.246888V0.759388Z" fill="#06799E"/>
</svg>
