<svg width="60" height="60" viewBox="0 0 60 60" fill="none" xmlns="http://www.w3.org/2000/svg">
<circle cx="30" cy="30" r="30" fill="#2087C9" fill-opacity="0.9"/>
<path d="M34.125 13.8281C31.8251 13.8281 29.6194 14.7418 27.9931 16.3681C26.3668 17.9943 25.4531 20.2001 25.4531 22.5V27.3281H20.8125C20.58 27.3281 20.3906 27.5156 20.3906 27.75V34.125C20.3906 34.3575 20.5781 34.5469 20.8125 34.5469H25.4531V47.625C25.4531 47.8575 25.6406 48.0469 25.875 48.0469H32.25C32.4825 48.0469 32.6719 47.8594 32.6719 47.625V34.5469H37.3538C37.5469 34.5469 37.7156 34.4156 37.7625 34.2281L39.3563 27.8531C39.3719 27.7909 39.3732 27.726 39.36 27.6632C39.3468 27.6004 39.3195 27.5414 39.2801 27.4908C39.2406 27.4402 39.1902 27.3992 39.1326 27.371C39.075 27.3429 39.0117 27.3282 38.9475 27.3281H32.6719V22.5C32.6719 22.3092 32.7095 22.1202 32.7825 21.9439C32.8555 21.7676 32.9626 21.6074 33.0975 21.4725C33.2324 21.3376 33.3926 21.2305 33.5689 21.1575C33.7452 21.0845 33.9342 21.0469 34.125 21.0469H39C39.2325 21.0469 39.4219 20.8594 39.4219 20.625V14.25C39.4219 14.0175 39.2344 13.8281 39 13.8281H34.125Z" fill="white"/>
</svg>
