<svg width="60" height="60" viewBox="0 0 60 60" fill="none" xmlns="http://www.w3.org/2000/svg">
<circle cx="30" cy="30" r="30" fill="#2087C9" fill-opacity="0.9"/>
<path d="M22.125 11.25H37.875C43.875 11.25 48.75 16.125 48.75 22.125V37.875C48.75 40.7592 47.6042 43.5253 45.5648 45.5648C43.5253 47.6042 40.7592 48.75 37.875 48.75H22.125C16.125 48.75 11.25 43.875 11.25 37.875V22.125C11.25 19.2408 12.3958 16.4747 14.4352 14.4352C16.4747 12.3958 19.2408 11.25 22.125 11.25ZM21.75 15C19.9598 15 18.2429 15.7112 16.977 16.977C15.7112 18.2429 15 19.9598 15 21.75V38.25C15 41.9812 18.0187 45 21.75 45H38.25C40.0402 45 41.7571 44.2888 43.023 43.023C44.2888 41.7571 45 40.0402 45 38.25V21.75C45 18.0187 41.9812 15 38.25 15H21.75ZM39.8438 17.8125C40.4654 17.8125 41.0615 18.0594 41.501 18.499C41.9406 18.9385 42.1875 19.5346 42.1875 20.1562C42.1875 20.7779 41.9406 21.374 41.501 21.8135C41.0615 22.2531 40.4654 22.5 39.8438 22.5C39.2221 22.5 38.626 22.2531 38.1865 21.8135C37.7469 21.374 37.5 20.7779 37.5 20.1562C37.5 19.5346 37.7469 18.9385 38.1865 18.499C38.626 18.0594 39.2221 17.8125 39.8438 17.8125ZM30 20.625C32.4864 20.625 34.871 21.6127 36.6291 23.3709C38.3873 25.129 39.375 27.5136 39.375 30C39.375 32.4864 38.3873 34.871 36.6291 36.6291C34.871 38.3873 32.4864 39.375 30 39.375C27.5136 39.375 25.129 38.3873 23.3709 36.6291C21.6127 34.871 20.625 32.4864 20.625 30C20.625 27.5136 21.6127 25.129 23.3709 23.3709C25.129 21.6127 27.5136 20.625 30 20.625ZM30 24.375C28.5082 24.375 27.0774 24.9676 26.0225 26.0225C24.9676 27.0774 24.375 28.5082 24.375 30C24.375 31.4918 24.9676 32.9226 26.0225 33.9775C27.0774 35.0324 28.5082 35.625 30 35.625C31.4918 35.625 32.9226 35.0324 33.9775 33.9775C35.0324 32.9226 35.625 31.4918 35.625 30C35.625 28.5082 35.0324 27.0774 33.9775 26.0225C32.9226 24.9676 31.4918 24.375 30 24.375Z" fill="white"/>
</svg>
