<svg width="62" height="62" viewBox="0 0 62 62" fill="none" xmlns="http://www.w3.org/2000/svg">
<path d="M31 1.23999C14.5638 1.23999 1.23999 14.5638 1.23999 31C1.23999 47.4362 14.5638 60.76 31 60.76C47.4362 60.76 60.76 47.4362 60.76 31C60.76 14.5638 47.4362 1.23999 31 1.23999ZM43.1055 25.6184C43.1179 25.8726 43.121 26.1268 43.121 26.3748C43.121 34.1248 37.2279 43.0559 26.4461 43.0559C23.2602 43.0612 20.1406 42.1462 17.4623 40.4209C17.918 40.4767 18.3861 40.4984 18.8604 40.4984C21.607 40.4984 24.1335 39.5653 26.1392 37.9905C24.9169 37.9665 23.7326 37.5617 22.7512 36.8327C21.7699 36.1036 21.0405 35.0866 20.6646 33.9233C21.5424 34.0902 22.4466 34.0552 23.3089 33.821C21.9822 33.5527 20.7892 32.8339 19.9321 31.7863C19.075 30.7388 18.6065 29.4271 18.6062 28.0736V28.0023C19.3967 28.4394 20.3019 28.706 21.2629 28.737C20.0192 27.9091 19.1387 26.6373 18.8016 25.1817C18.4645 23.7261 18.6962 22.1968 19.4494 20.9064C20.9218 22.7168 22.7579 24.1978 24.839 25.2536C26.92 26.3093 29.1996 26.9162 31.5301 27.0351C31.2338 25.7774 31.3613 24.4571 31.8928 23.2795C32.4243 22.1018 33.33 21.1327 34.4691 20.5228C35.6082 19.913 36.9169 19.6965 38.1917 19.9072C39.4664 20.1178 40.6359 20.7437 41.5183 21.6876C42.8301 21.428 44.0881 20.9469 45.2383 20.2647C44.8011 21.6229 43.8857 22.7762 42.6622 23.5104C43.8242 23.3704 44.9589 23.058 46.0288 22.5835C45.2429 23.7612 44.2529 24.7889 43.1055 25.6184Z" fill="#2087C9" fill-opacity="0.9"/>
</svg>
